<?xml version="1.0" standalone="no"?>
<!DOCTYPE svg PUBLIC "-//W3C//DTD SVG 20010904//EN"
 "http://www.w3.org/TR/2001/REC-SVG-20010904/DTD/svg10.dtd">
<svg version="1.0" xmlns="http://www.w3.org/2000/svg"
 width="700.000000pt" height="700.000000pt" viewBox="0 0 700.000000 700.000000"
 preserveAspectRatio="xMidYMid meet">
<metadata>
Created by potrace 1.11, written by Peter Selinger 2001-2013
</metadata>
<g transform="translate(0.000000,700.000000) scale(0.100000,-0.100000)"
fill="#000000" stroke="none">
<path d="M1747 6480 c-51 -9 -107 -56 -136 -113 -22 -45 -23 -54 -23 -301 1
-274 3 -291 56 -353 15 -18 25 -37 22 -42 -3 -5 -8 -26 -12 -47 -3 -20 -10
-48 -15 -61 -5 -13 -7 -23 -5 -23 2 0 -2 -23 -9 -51 -10 -37 -26 -63 -57 -93
-238 -231 -420 -529 -531 -867 -110 -335 -132 -718 -62 -1069 40 -203 92 -354
185 -545 l49 -100 2 -590 2 -590 -47 -185 -47 -185 3 -245 3 -245 29 -57 c49
-97 125 -161 231 -192 34 -11 458 -13 2081 -13 1165 0 2053 4 2071 9 63 17 81
109 32 154 -20 18 -48 19 -488 24 l-466 5 58 55 c32 30 65 67 73 82 12 23 14
159 14 861 l0 834 34 44 c56 74 141 209 188 299 130 248 208 515 235 798 12
132 6 411 -12 502 -5 25 -11 61 -19 110 -6 39 -16 77 -47 187 -137 481 -454
908 -881 1190 -193 127 -466 248 -651 288 -10 2 -26 6 -35 9 -20 6 -44 11
-172 32 -95 16 -409 24 -535 14 l-60 -5 -2 121 c-2 173 -5 204 -25 246 -24 49
-82 95 -137 107 -51 11 -831 12 -894 1z"/>
<path d="M4671 6142 c-87 -44 -56 -182 41 -182 108 0 142 144 44 185 -44 19
-44 19 -85 -3z"/>
<path d="M5553 5448 c-33 -16 -46 -61 -46 -161 1 -140 1 -142 28 -171 53 -58
153 -18 156 63 1 20 1 79 1 131 0 93 -1 95 -31 122 -33 29 -69 35 -108 16z"/>
<path d="M5194 5079 c-35 -10 -66 -60 -59 -94 2 -11 4 -23 4 -26 1 -4 13 -18
27 -33 26 -25 31 -26 145 -26 70 0 129 5 144 12 56 25 66 101 20 147 -24 24
-31 26 -138 27 -61 1 -126 -2 -143 -7z"/>
<path d="M5755 5081 c-70 -30 -80 -113 -21 -163 28 -24 241 -26 286 -3 55 28
60 105 10 150 -19 17 -38 20 -139 22 -64 2 -125 -1 -136 -6z"/>
<path d="M5540 4873 c-31 -28 -31 -28 -33 -147 -3 -157 16 -196 94 -196 26 0
44 7 63 26 29 30 28 26 28 179 l0 109 -31 28 c-41 36 -81 37 -121 1z"/>
</g>
</svg>
